<?xml version="1.0" encoding="UTF-8" standalone="no"?>
<!DOCTYPE svg PUBLIC "-//W3C//DTD SVG 1.1//EN"
 "http://www.w3.org/Graphics/SVG/1.1/DTD/svg11.dtd">
<!-- Generated by graphviz version 2.30.1 (20130214.1330)
 -->
<!-- Title: G Pages: 1 -->
<svg width="460pt" height="96pt"
 viewBox="0.00 0.00 460.00 96.00" xmlns="http://www.w3.org/2000/svg" xmlns:xlink="http://www.w3.org/1999/xlink">
<g id="graph0" class="graph" transform="scale(1 1) rotate(0) translate(4 92)">
<title>G</title>
<polygon fill="white" stroke="white" points="-4,5 -4,-92 457,-92 457,5 -4,5"/>
<g id="clust1" class="cluster"><title>cluster_global</title>
<path fill="none" stroke="gray" d="M342,-8C342,-8 432,-8 432,-8 438,-8 444,-14 444,-20 444,-20 444,-68 444,-68 444,-74 438,-80 432,-80 432,-80 342,-80 342,-80 336,-80 330,-74 330,-68 330,-68 330,-20 330,-20 330,-14 336,-8 342,-8"/>
<text text-anchor="middle" x="387" y="-67.2" font-family="Times New Roman,serif" font-size="11.00" fill="gray">global</text>
</g>
<!-- \\DinheiroTest -->
<g id="node1" class="node"><title>\\DinheiroTest</title>
<g id="a_node1"><a xlink:href="DinheiroTest.html" xlink:title="DinheiroTest" target="_parent">
<polygon fill="none" stroke="black" points="436,-52 338,-52 338,-16 436,-16 436,-52"/>
<text text-anchor="middle" x="387" y="-31.2" font-family="Courier,monospace" font-size="11.00">DinheiroTest</text>
</a>
</g>
</g>
<!-- \\PHPUnit_FrameWork_TestCase -->
<g id="node2" class="node"><title>\\PHPUnit_FrameWork_TestCase</title>
<ellipse fill="none" stroke="black" cx="133" cy="-34" rx="133.477" ry="18"/>
<text text-anchor="middle" x="133" y="-30.3" font-family="Times New Roman,serif" font-size="14.00" fill="gray">\PHPUnit_FrameWork_TestCase</text>
</g>
<!-- \\DinheiroTest&#45;&gt;\\PHPUnit_FrameWork_TestCase -->
<g id="edge1" class="edge"><title>\\DinheiroTest&#45;&gt;\\PHPUnit_FrameWork_TestCase</title>
<path fill="none" stroke="black" d="M337.71,-34C319.802,-34 298.457,-34 276.431,-34"/>
<polygon fill="none" stroke="black" points="276.273,-30.5001 266.273,-34 276.273,-37.5001 276.273,-30.5001"/>
</g>
</g>
</svg>
