<?xml version="1.0" encoding="UTF-8" standalone="no"?>
<!DOCTYPE svg PUBLIC "-//W3C//DTD SVG 1.1//EN"
 "http://www.w3.org/Graphics/SVG/1.1/DTD/svg11.dtd">
<!-- Generated by graphviz version 2.30.1 (20130214.1330)
 -->
<!-- Title: G Pages: 1 -->
<svg width="446pt" height="96pt"
 viewBox="0.00 0.00 446.00 96.00" xmlns="http://www.w3.org/2000/svg" xmlns:xlink="http://www.w3.org/1999/xlink">
<g id="graph0" class="graph" transform="scale(1 1) rotate(0) translate(4 92)">
<title>G</title>
<polygon fill="white" stroke="white" points="-4,5 -4,-92 443,-92 443,5 -4,5"/>
<g id="clust1" class="cluster"><title>cluster_global</title>
<path fill="none" stroke="gray" d="M342,-8C342,-8 418,-8 418,-8 424,-8 430,-14 430,-20 430,-20 430,-68 430,-68 430,-74 424,-80 418,-80 418,-80 342,-80 342,-80 336,-80 330,-74 330,-68 330,-68 330,-20 330,-20 330,-14 336,-8 342,-8"/>
<text text-anchor="middle" x="380" y="-67.2" font-family="Times New Roman,serif" font-size="11.00" fill="gray">global</text>
</g>
<!-- \\DollarTest -->
<g id="node1" class="node"><title>\\DollarTest</title>
<g id="a_node1"><a xlink:href="DollarTest.html" xlink:title="DollarTest" target="_parent">
<polygon fill="none" stroke="black" points="422,-52 338,-52 338,-16 422,-16 422,-52"/>
<text text-anchor="middle" x="380" y="-31.2" font-family="Courier,monospace" font-size="11.00">DollarTest</text>
</a>
</g>
</g>
<!-- \\PHPUnit_FrameWork_TestCase -->
<g id="node2" class="node"><title>\\PHPUnit_FrameWork_TestCase</title>
<ellipse fill="none" stroke="black" cx="133" cy="-34" rx="133.477" ry="18"/>
<text text-anchor="middle" x="133" y="-30.3" font-family="Times New Roman,serif" font-size="14.00" fill="gray">\PHPUnit_FrameWork_TestCase</text>
</g>
<!-- \\DollarTest&#45;&gt;\\PHPUnit_FrameWork_TestCase -->
<g id="edge1" class="edge"><title>\\DollarTest&#45;&gt;\\PHPUnit_FrameWork_TestCase</title>
<path fill="none" stroke="black" d="M337.993,-34C320.49,-34 298.925,-34 276.44,-34"/>
<polygon fill="none" stroke="black" points="276.407,-30.5001 266.407,-34 276.407,-37.5001 276.407,-30.5001"/>
</g>
</g>
</svg>
