<?xml version="1.0" encoding="UTF-8" standalone="no"?>
<!DOCTYPE svg PUBLIC "-//W3C//DTD SVG 1.1//EN"
 "http://www.w3.org/Graphics/SVG/1.1/DTD/svg11.dtd">
<!-- Generated by graphviz version 2.30.1 (20130214.1330)
 -->
<!-- Title: G Pages: 1 -->
<svg width="446pt" height="150pt"
 viewBox="0.00 0.00 446.00 150.00" xmlns="http://www.w3.org/2000/svg" xmlns:xlink="http://www.w3.org/1999/xlink">
<g id="graph0" class="graph" transform="scale(1 1) rotate(0) translate(4 146)">
<title>G</title>
<polygon fill="white" stroke="white" points="-4,5 -4,-146 443,-146 443,5 -4,5"/>
<g id="clust1" class="cluster"><title>cluster_global</title>
<path fill="none" stroke="gray" d="M342,-8C342,-8 418,-8 418,-8 424,-8 430,-14 430,-20 430,-20 430,-122 430,-122 430,-128 424,-134 418,-134 418,-134 342,-134 342,-134 336,-134 330,-128 330,-122 330,-122 330,-20 330,-20 330,-14 336,-8 342,-8"/>
<text text-anchor="middle" x="380" y="-121.2" font-family="Times New Roman,serif" font-size="11.00" fill="gray">global</text>
</g>
<!-- \\DollarTest -->
<g id="node1" class="node"><title>\\DollarTest</title>
<g id="a_node1"><a xlink:href="DollarTest.html" xlink:title="DollarTest" target="_parent">
<polygon fill="none" stroke="black" points="422,-106 338,-106 338,-70 422,-70 422,-106"/>
<text text-anchor="middle" x="380" y="-85.2" font-family="Courier,monospace" font-size="11.00">DollarTest</text>
</a>
</g>
</g>
<!-- \\PHPUnit_FrameWork_TestCase -->
<g id="node3" class="node"><title>\\PHPUnit_FrameWork_TestCase</title>
<ellipse fill="none" stroke="black" cx="133" cy="-61" rx="133.477" ry="18"/>
<text text-anchor="middle" x="133" y="-57.3" font-family="Times New Roman,serif" font-size="14.00" fill="gray">\PHPUnit_FrameWork_TestCase</text>
</g>
<!-- \\DollarTest&#45;&gt;\\PHPUnit_FrameWork_TestCase -->
<g id="edge1" class="edge"><title>\\DollarTest&#45;&gt;\\PHPUnit_FrameWork_TestCase</title>
<path fill="none" stroke="black" d="M337.993,-83.4808C312.87,-80.7122 279.379,-77.0214 246.808,-73.4319"/>
<polygon fill="none" stroke="black" points="247.063,-69.9389 236.739,-72.3223 246.296,-76.8967 247.063,-69.9389"/>
</g>
<!-- \\FrancoTest -->
<g id="node2" class="node"><title>\\FrancoTest</title>
<g id="a_node2"><a xlink:href="FrancoTest.html" xlink:title="FrancoTest" target="_parent">
<polygon fill="none" stroke="black" points="422,-52 338,-52 338,-16 422,-16 422,-52"/>
<text text-anchor="middle" x="380" y="-31.2" font-family="Courier,monospace" font-size="11.00">FrancoTest</text>
</a>
</g>
</g>
<!-- \\FrancoTest&#45;&gt;\\PHPUnit_FrameWork_TestCase -->
<g id="edge2" class="edge"><title>\\FrancoTest&#45;&gt;\\PHPUnit_FrameWork_TestCase</title>
<path fill="none" stroke="black" d="M337.993,-38.5192C312.87,-41.2878 279.379,-44.9786 246.808,-48.5681"/>
<polygon fill="none" stroke="black" points="246.296,-45.1033 236.739,-49.6777 247.063,-52.0611 246.296,-45.1033"/>
</g>
</g>
</svg>
