<?xml version="1.0" encoding="UTF-8" standalone="no"?>
<!DOCTYPE svg PUBLIC "-//W3C//DTD SVG 1.1//EN"
 "http://www.w3.org/Graphics/SVG/1.1/DTD/svg11.dtd">
<!-- Generated by graphviz version 2.30.1 (20130214.1330)
 -->
<!-- Title: G Pages: 1 -->
<svg width="242pt" height="150pt"
 viewBox="0.00 0.00 242.00 150.00" xmlns="http://www.w3.org/2000/svg" xmlns:xlink="http://www.w3.org/1999/xlink">
<g id="graph0" class="graph" transform="scale(1 1) rotate(0) translate(4 146)">
<title>G</title>
<polygon fill="white" stroke="white" points="-4,5 -4,-146 239,-146 239,5 -4,5"/>
<g id="clust1" class="cluster"><title>cluster_global</title>
<path fill="none" stroke="gray" d="M20,-8C20,-8 214,-8 214,-8 220,-8 226,-14 226,-20 226,-20 226,-122 226,-122 226,-128 220,-134 214,-134 214,-134 20,-134 20,-134 14,-134 8,-128 8,-122 8,-122 8,-20 8,-20 8,-14 14,-8 20,-8"/>
<text text-anchor="middle" x="117" y="-121.2" font-family="Times New Roman,serif" font-size="11.00" fill="gray">global</text>
</g>
<!-- \\Dinheiro -->
<g id="node1" class="node"><title>\\Dinheiro</title>
<g id="a_node1"><a xlink:href="Dinheiro.html" xlink:title="Dinheiro" target="_parent">
<polygon fill="none" stroke="black" points="87.5,-79 16.5,-79 16.5,-43 87.5,-43 87.5,-79"/>
<text text-anchor="middle" x="52" y="-58.2" font-family="Courier,monospace" font-size="11.00">Dinheiro</text>
</a>
</g>
</g>
<!-- \\Dollar -->
<g id="node2" class="node"><title>\\Dollar</title>
<g id="a_node2"><a xlink:href="Dollar.html" xlink:title="Dollar" target="_parent">
<polygon fill="none" stroke="black" points="217.5,-106 160.5,-106 160.5,-70 217.5,-70 217.5,-106"/>
<text text-anchor="middle" x="189" y="-85.2" font-family="Courier,monospace" font-size="11.00">Dollar</text>
</a>
</g>
</g>
<!-- \\Dollar&#45;&gt;\\Dinheiro -->
<g id="edge1" class="edge"><title>\\Dollar&#45;&gt;\\Dinheiro</title>
<path fill="none" stroke="black" d="M160.355,-82.471C142.323,-78.8647 118.38,-74.076 97.6812,-69.9362"/>
<polygon fill="none" stroke="black" points="98.3129,-66.4933 87.8207,-67.9641 96.9401,-73.3574 98.3129,-66.4933"/>
</g>
<!-- \\Franco -->
<g id="node3" class="node"><title>\\Franco</title>
<g id="a_node3"><a xlink:href="Franco.html" xlink:title="Franco" target="_parent">
<polygon fill="none" stroke="black" points="217.5,-52 160.5,-52 160.5,-16 217.5,-16 217.5,-52"/>
<text text-anchor="middle" x="189" y="-31.2" font-family="Courier,monospace" font-size="11.00">Franco</text>
</a>
</g>
</g>
<!-- \\Franco&#45;&gt;\\Dinheiro -->
<g id="edge2" class="edge"><title>\\Franco&#45;&gt;\\Dinheiro</title>
<path fill="none" stroke="black" d="M160.355,-39.529C142.323,-43.1353 118.38,-47.924 97.6812,-52.0638"/>
<polygon fill="none" stroke="black" points="96.9401,-48.6426 87.8207,-54.0359 98.3129,-55.5067 96.9401,-48.6426"/>
</g>
</g>
</svg>
