<?xml version="1.0" encoding="UTF-8" standalone="no"?>
<!DOCTYPE svg PUBLIC "-//W3C//DTD SVG 1.1//EN"
 "http://www.w3.org/Graphics/SVG/1.1/DTD/svg11.dtd">
<!-- Generated by graphviz version 2.30.1 (20130214.1330)
 -->
<!-- Title: G Pages: 1 -->
<svg width="262pt" height="204pt"
 viewBox="0.00 0.00 262.00 204.00" xmlns="http://www.w3.org/2000/svg" xmlns:xlink="http://www.w3.org/1999/xlink">
<g id="graph0" class="graph" transform="scale(1 1) rotate(0) translate(4 200)">
<title>G</title>
<polygon fill="white" stroke="white" points="-4,5 -4,-200 259,-200 259,5 -4,5"/>
<g id="clust1" class="cluster"><title>cluster_global</title>
<path fill="none" stroke="gray" d="M20,-8C20,-8 234,-8 234,-8 240,-8 246,-14 246,-20 246,-20 246,-176 246,-176 246,-182 240,-188 234,-188 234,-188 20,-188 20,-188 14,-188 8,-182 8,-176 8,-176 8,-20 8,-20 8,-14 14,-8 20,-8"/>
<text text-anchor="middle" x="127" y="-175.2" font-family="Times New Roman,serif" font-size="11.00" fill="gray">global</text>
</g>
<!-- \\Banco -->
<g id="node1" class="node"><title>\\Banco</title>
<g id="a_node1"><a xlink:href="bancos.Banco.html" xlink:title="Banco" target="_parent">
<polygon fill="none" stroke="black" points="229,-160 175,-160 175,-124 229,-124 229,-160"/>
<text text-anchor="middle" x="202" y="-139.2" font-family="Courier,monospace" font-size="11.00">Banco</text>
</a>
</g>
</g>
<!-- \\Expressao -->
<g id="node2" class="node"><title>\\Expressao</title>
<g id="a_node2"><a xlink:href="interfaces.Expressao.html" xlink:title="Expressao" target="_parent">
<polygon fill="none" stroke="black" points="93.5,-79 16.5,-79 16.5,-43 93.5,-43 93.5,-79"/>
<text text-anchor="middle" x="55" y="-58.2" font-family="Courier,monospace" font-size="11.00">Expressao</text>
</a>
</g>
</g>
<!-- \\Soma -->
<g id="node3" class="node"><title>\\Soma</title>
<g id="a_node3"><a xlink:href="interfaces.Soma.html" xlink:title="Soma" target="_parent">
<polygon fill="none" stroke="black" points="229,-106 175,-106 175,-70 229,-70 229,-106"/>
<text text-anchor="middle" x="202" y="-85.2" font-family="Courier,monospace" font-size="11.00">Soma</text>
</a>
</g>
</g>
<!-- \\Soma&#45;&gt;\\Expressao -->
<g id="edge1" class="edge"><title>\\Soma&#45;&gt;\\Expressao</title>
<path fill="none" stroke="black" stroke-dasharray="1,5" d="M174.742,-83.1105C154.89,-79.4139 127.099,-74.2391 103.394,-69.825"/>
<polygon fill="none" stroke="black" points="103.991,-66.3762 93.5194,-67.9864 102.71,-73.2579 103.991,-66.3762"/>
</g>
<!-- \\Dinheiro -->
<g id="node4" class="node"><title>\\Dinheiro</title>
<g id="a_node4"><a xlink:href="moedas.Dinheiro.html" xlink:title="Dinheiro" target="_parent">
<polygon fill="none" stroke="black" points="237.5,-52 166.5,-52 166.5,-16 237.5,-16 237.5,-52"/>
<text text-anchor="middle" x="202" y="-31.2" font-family="Courier,monospace" font-size="11.00">Dinheiro</text>
</a>
</g>
</g>
<!-- \\Dinheiro&#45;&gt;\\Expressao -->
<g id="edge2" class="edge"><title>\\Dinheiro&#45;&gt;\\Expressao</title>
<path fill="none" stroke="black" stroke-dasharray="1,5" d="M166.269,-40.4672C147.562,-43.9505 124.201,-48.3006 103.802,-52.099"/>
<polygon fill="none" stroke="black" points="102.944,-48.6985 93.7532,-53.9701 104.225,-55.5803 102.944,-48.6985"/>
</g>
</g>
</svg>
