<?xml version="1.0" encoding="UTF-8" standalone="no"?>
<!DOCTYPE svg PUBLIC "-//W3C//DTD SVG 1.1//EN"
 "http://www.w3.org/Graphics/SVG/1.1/DTD/svg11.dtd">
<!-- Generated by graphviz version 2.30.1 (20130214.1330)
 -->
<!-- Title: G Pages: 1 -->
<svg width="98pt" height="150pt"
 viewBox="0.00 0.00 98.00 150.00" xmlns="http://www.w3.org/2000/svg" xmlns:xlink="http://www.w3.org/1999/xlink">
<g id="graph0" class="graph" transform="scale(1 1) rotate(0) translate(4 146)">
<title>G</title>
<polygon fill="white" stroke="white" points="-4,5 -4,-146 95,-146 95,5 -4,5"/>
<g id="clust1" class="cluster"><title>cluster_global</title>
<path fill="none" stroke="gray" d="M20,-8C20,-8 70,-8 70,-8 76,-8 82,-14 82,-20 82,-20 82,-122 82,-122 82,-128 76,-134 70,-134 70,-134 20,-134 20,-134 14,-134 8,-128 8,-122 8,-122 8,-20 8,-20 8,-14 14,-8 20,-8"/>
<text text-anchor="middle" x="45" y="-121.2" font-family="Times New Roman,serif" font-size="11.00" fill="gray">global</text>
</g>
<!-- \\Dollar -->
<g id="node1" class="node"><title>\\Dollar</title>
<g id="a_node1"><a xlink:href="Dollar.html" xlink:title="Dollar" target="_parent">
<polygon fill="none" stroke="black" points="73.5,-106 16.5,-106 16.5,-70 73.5,-70 73.5,-106"/>
<text text-anchor="middle" x="45" y="-85.2" font-family="Courier,monospace" font-size="11.00">Dollar</text>
</a>
</g>
</g>
<!-- \\Franco -->
<g id="node2" class="node"><title>\\Franco</title>
<g id="a_node2"><a xlink:href="Franco.html" xlink:title="Franco" target="_parent">
<polygon fill="none" stroke="black" points="73.5,-52 16.5,-52 16.5,-16 73.5,-16 73.5,-52"/>
<text text-anchor="middle" x="45" y="-31.2" font-family="Courier,monospace" font-size="11.00">Franco</text>
</a>
</g>
</g>
</g>
</svg>
