<?xml version="1.0" encoding="UTF-8" standalone="no"?>
<!DOCTYPE svg PUBLIC "-//W3C//DTD SVG 1.1//EN"
 "http://www.w3.org/Graphics/SVG/1.1/DTD/svg11.dtd">
<!-- Generated by graphviz version 2.30.1 (20130214.1330)
 -->
<!-- Title: G Pages: 1 -->
<svg width="98pt" height="96pt"
 viewBox="0.00 0.00 98.00 96.00" xmlns="http://www.w3.org/2000/svg" xmlns:xlink="http://www.w3.org/1999/xlink">
<g id="graph0" class="graph" transform="scale(1 1) rotate(0) translate(4 92)">
<title>G</title>
<polygon fill="white" stroke="white" points="-4,5 -4,-92 95,-92 95,5 -4,5"/>
<g id="clust1" class="cluster"><title>cluster_global</title>
<path fill="none" stroke="gray" d="M20,-8C20,-8 70,-8 70,-8 76,-8 82,-14 82,-20 82,-20 82,-68 82,-68 82,-74 76,-80 70,-80 70,-80 20,-80 20,-80 14,-80 8,-74 8,-68 8,-68 8,-20 8,-20 8,-14 14,-8 20,-8"/>
<text text-anchor="middle" x="45" y="-67.2" font-family="Times New Roman,serif" font-size="11.00" fill="gray">global</text>
</g>
<!-- \\Dollar -->
<g id="node1" class="node"><title>\\Dollar</title>
<g id="a_node1"><a xlink:href="Dollar.html" xlink:title="Dollar" target="_parent">
<polygon fill="none" stroke="black" points="73.5,-52 16.5,-52 16.5,-16 73.5,-16 73.5,-52"/>
<text text-anchor="middle" x="45" y="-31.2" font-family="Courier,monospace" font-size="11.00">Dollar</text>
</a>
</g>
</g>
</g>
</svg>
